<svg xmlns="http://www.w3.org/2000/svg" width="128" height="128" viewBox="0 0 128 128">
  <defs>
    <linearGradient id="g" x1="0" y1="0" x2="0" y2="1">
      <stop offset="0" stop-color="#e7c558"/>
      <stop offset="0.5" stop-color="#c9a227"/>
      <stop offset="1" stop-color="#8a6d1a"/>
    </linearGradient>
  </defs>
  <rect width="128" height="128" rx="20" fill="#171b24"/>
  <!-- great helm -->
  <path d="M40 42 Q40 24 64 24 Q88 24 88 42 L88 96 Q88 106 78 106 L50 106 Q40 106 40 96 Z"
        fill="url(#g)" stroke="#5a4711" stroke-width="2"/>
  <!-- left sheen -->
  <path d="M46 30 Q44 28 50 26 L50 100 Q44 100 46 96 Z" fill="#f3dd8a" opacity="0.5"/>
  <!-- eye slits -->
  <rect x="46" y="50" width="15" height="8" rx="3" fill="#15181f"/>
  <rect x="67" y="50" width="15" height="8" rx="3" fill="#15181f"/>
  <!-- cruciform breathing holes -->
  <rect x="61" y="62" width="6" height="36" rx="2" fill="#15181f"/>
  <rect x="50" y="71" width="28" height="6" rx="2" fill="#15181f"/>
</svg>
